# AST/ASF file generated using VICON BodyLanguage
# -----------------------------------------------
:version 1.10
:name VICON
:units
  mass 1.0
  length 0.45
  angle deg
:documentation
   .ast/.asf automatically generated from VICON data using
   VICON BodyBuilder and BodyLanguage model FoxedUp or BRILLIANT.MOD
:root
   order TX TY TZ RX RY RZ
   axis XYZ
   position 0 0 0  
   orientation 0 0 0 
:bonedata
  begin
     id 1 
     name lhipjoint
     direction 0.522423 -0.726805 0.445902 
     length 2.25074 
     axis 0 0 0  XYZ
  end
  begin
     id 2 
     name lfemur
     direction 0.34202 -0.939693 0  
     length 6.54609  
     axis 0 0 20  XYZ
    dof rx ry rz
    limits (-160.0 20.0)
           (-70.0 70.0)
           (-60.0 70.0)
  end
  begin
     id 3 
     name ltibia
     direction 0.34202 -0.939693 0   
     length 7.7528   
     axis 0 0 20   XYZ
    dof rx
    limits (-10.0 170.0)
  end
  begin
     id 4 
     name lfoot
     direction 0.143696 -0.394801 0.90746   
     length 1.73269   
     axis -90 7.62852e-016 20   XYZ
    dof rx rz
    limits (-45.0 90.0)
           (-70.0 20.0)
  end
  begin
     id 5 
     name ltoes
     direction 1.53633e-011 -4.21912e-011 1   
     length 0.858383   
     axis -90 7.62852e-016 20   XYZ
    dof rx
    limits (-90.0 20.0)
  end
  begin
     id 6 
     name rhipjoint
     direction -0.515943 -0.73016 0.447961   
     length 2.2404  
     axis 0 0 0  XYZ 
  end
  begin
     id 7 
     name rfemur
     direction -0.34202 -0.939693 0   
     length 6.84377   
     axis 0 0 -20   XYZ
    dof rx ry rz
    limits (-160.0 20.0)
           (-70.0 70.0)
           (-70.0 60.0)
  end
  begin
     id 8 
     name rtibia
     direction -0.34202 -0.939693 0   
     length 7.57596   
     axis 0 0 -20   XYZ
    dof rx
    limits (-10.0 170.0)
 end
 begin
     id 9 
     name rfoot
     direction -0.0999372 -0.274575 0.956358   
     length 1.78783  
     axis -90 -7.62852e-016 -20   XYZ
    dof rx rz
    limits (-45.0 90.0)
           (-20.0 70.0)
  end
  begin
     id 10 
     name rtoes
     direction -1.53535e-011 -4.21895e-011 1   
     length 0.898614   
     axis -90 -7.62852e-016 -20   XYZ
    dof rx
    limits (-90.0 20.0)
  end
  begin
     id 11 
     name lowerback
     direction -0.011775 0.996164 -0.0867116   
     length 1.91499   
     axis 0 0 0   XYZ
    dof rx ry rz
    limits (-20.0 45.0)
           (-30.0 30.0)
           (-30.0 30.0)
  end
  begin
     id 12 
     name upperback
     direction -0.00189771 0.999673 -0.0254833   
     length 1.92213   
     axis 0 0 0   XYZ
    dof rx ry rz
    limits (-20.0 45.0)
           (-30.0 30.0)
           (-30.0 30.0)
  end
  begin
     id 13 
     name thorax
     direction 0.00335995 0.999878 0.0152401   
     length 1.93138   
     axis 0 0 0   XYZ
    dof rx ry rz
    limits (-20.0 45.0)
           (-30.0 30.0)
           (-30.0 30.0)
  end
  begin
     id 14 
     name lowerneck
     direction 0.00233191 0.998509 0.0545404   
     length 1.59408   
     axis 0 0 0   XYZ
    dof rx ry rz
    limits (-20.0 45.0)
           (-30.0 30.0)
           (-30.0 30.0)
  end
  begin
     id 15 
     name upperneck
     direction 0.07881 0.9956 -0.0506934   
     length 1.59344   
     axis 0 0 0   XYZ
    dof rx ry rz
    limits (-20.0 45.0)
           (-30.0 30.0)
           (-30.0 30.0)
  end
  begin
     id 16
     name head
     direction 0.0261681 0.999378 -0.0236299  
     length 1.60935  
     axis 0 0 0   XYZ
    dof rx ry rz
    limits (-20.0 45.0)
           (-30.0 30.0)
           (-30.0 30.0)
  end
  begin
     id 17 
     name lclavicle
     direction 0.96643 0.252035 0.0499195  
     length 3.82153  
     axis 0 0 0   XYZ
    dof ry rz
    limits (-20.0 10.0)
           (0.0 20.0)
  end
  begin
     id 18 
     name lhumerus
     direction 1 -4.48967e-011 -2.01614e-018   
     length 4.87796   
     axis 180 -30 -90   XYZ
    dof rx ry rz
    limits (-60.0 90.0)
           (-90.0 90.0)
           (-90.0 90.0)
  end
  begin
     id 19
     name lradius
     direction 1 -4.48958e-011 3.1409e-027   
     length 3.23169   
     axis 180 -30 -90   XYZ
    dof rx
    limits (-10.0 170.0)
  end
  begin
     id 20
     name lwrist
     direction 1 -4.48924e-011 1.0365e-027   
     length 1.61584   
     axis -2.56395e-016 90 90   XYZ
    dof ry
    limits (-180.0 0.0)
 end
  begin
     id 21 
     name lhand
     direction 1 -4.49055e-011 2.09488e-027   
     length 0.731324   
     axis -1.32723e-015 90 90   XYZ
    dof rx rz
    limits (-90.0 90.0)
           (-45.0 45.0)
  end
  begin
     id 22 
     name lfingers
     direction 1 -4.48935e-011 4.14981e-027   
     length 0.589612   
     axis -2.6545e-015 90 90   XYZ
    dof rx
    limits (0.0 90.0)
  end
  begin
     id 23
     name lthumb
     direction 0.707107 -6.35097e-011 0.707107   
     length 0.846569   
     axis -90 45 5.05613e-014   XYZ
    dof rx rz
    limits (-45.0 45.0)
           (-45.0 45.0)
  end
  begin
     id 24 
     name rclavicle
     direction -0.979337 0.201016 0.0221522   
     length 3.73827  
     axis 0 0 0   XYZ 
    dof ry rz
    limits (-10.0 20.0)
           (-20.0 0.0)
  end
  begin
     id 25 
     name rhumerus
     direction -1 -4.48971e-011 1.65907e-027  
     length 4.9143   
     axis 180 30 90   XYZ
    dof rx ry rz
    limits (-90.0 60.0)
           (-90.0 90.0)
           (-90.0 90.0)
  end
  begin
     id 26 
     name rradius
     direction -1 -4.4894e-011 2.17871e-028   
     length 3.29093   
     axis 180 30 90   XYZ
    dof rx
    limits (-10.0 170.0)
  end
  begin
     id 27 
     name rwrist
     direction -1 -4.48971e-011 1.04038e-027   
     length 1.64546   
     axis -2.56395e-016 -90 -90   XYZ
    dof ry
    limits (-180.0 0.0)
  end
  begin
     id 28
     name rhand
     direction -1 -4.49017e-011 2.08843e-027   
     length 0.54512   
     axis -1.32723e-015 -90 -90   XYZ
    dof rx rz
    limits (-90.0 90.0)
           (-45.0 45.0)
  end
  begin
     id 29
     name rfingers
     direction -1 -4.48918e-011 4.1439e-027   
     length 0.43949   
     axis -2.6545e-015 -90 -90   XYZ
    dof rx
    limits (0.0 90.0)
  end
  begin
     id 30
     name rthumb
     direction -0.707107 -6.35065e-011 0.707107   
     length 0.631022   
     axis -90 -45 -5.05613e-014   XYZ
    dof rx rz
    limits (-45.0 45.0)
           (-45.0 45.0)
  end
:hierarchy
  begin
    root lhipjoint rhipjoint lowerback
    lhipjoint lfemur
    lfemur ltibia
    ltibia lfoot
    lfoot ltoes
    rhipjoint rfemur
    rfemur rtibia
    rtibia rfoot
    rfoot rtoes
    lowerback upperback
    upperback thorax
    thorax lowerneck lclavicle rclavicle
    lowerneck upperneck
    upperneck head
    lclavicle lhumerus
    lhumerus lradius
    lradius lwrist
    lwrist lhand lthumb
    lhand lfingers
    rclavicle rhumerus
    rhumerus rradius
    rradius rwrist
    rwrist rhand rthumb
    rhand rfingers
  end

#!OML:ASF H:\BreakDance\Project 1\Capture day 1\Session 1\Male.ASF
:FULLY-SPECIFIED
:DEGREES
91
root 10.3738 15.9029 -0.670699 -130.686 -88.2481 128.348
lowerback -7.98661 -0.349633 -3.52816
upperback 3.15355 -0.0133374 -1.08924
thorax 7.82019 -0.161326 0.831697
lowerneck -0.743022 0.674898 -1.54733
upperneck 19.7557 -0.201936 3.68341
head 6.09024 -0.186642 1.39352
rclavicle -5.87036e-016 8.34896e-015
rhumerus -27.3823 17.6463 -92.4746
rradius 45.8353
rwrist 14.8884
rhand -18.438 -37.8112
rfingers 7.12502
rthumb 7.84762 -67.6456
lclavicle -5.87036e-016 8.34896e-015
lhumerus -30.1676 9.74228 84.3533
lradius 52.6694
lwrist -33.0405
lhand -11.8828 -29.0013
lfingers 7.12502
lthumb 14.1699 0.495402
rfemur -10.0058 2.8063 8.43019
rtibia 39.6974
rfoot -34.1958 -9.06934
rtoes 31.0086
lfemur -11.9761 -0.122011 -9.7861
ltibia 39.7051
lfoot -27.9187 22.9615
ltoes -35.4969
92
root 10.3725 15.903 -0.671787 -133.546 -88.323 131.205
lowerback -7.9435 -0.347849 -3.43971
upperback 3.12894 -0.0256644 -1.04772
thorax 7.76865 -0.162729 0.824473
lowerneck -0.710669 0.707857 -1.53071
upperneck 19.7517 -0.159064 3.68457
head 6.08222 -0.165317 1.39324
rclavicle -1.00014e-015 -8.34896e-015
rhumerus -27.434 17.6841 -92.4961
rradius 45.8347
rwrist 14.8853
rhand -18.4071 -37.8368
rfingers 7.12502
rthumb 7.87742 -67.67
lclavicle -1.00014e-015 -8.34896e-015
lhumerus -30.2008 9.76696 84.3356
lradius 52.654
lwrist -33.0215
lhand -11.8475 -29.0864
lfingers 7.12502
lthumb 14.2039 0.40798
rfemur -9.98635 2.9296 8.58846
rtibia 39.677
rfoot -34.2626 -9.15315
rtoes 31.0736
lfemur -11.9816 -0.088981 -9.64716
ltibia 39.7328
lfoot -27.9334 22.9356
ltoes -35.4653
93
root 10.3713 15.9031 -0.672608 -136.352 -88.387 134.008
lowerback -7.91094 -0.346658 -3.35097
upperback 3.10829 -0.0376667 -1.01366
thorax 7.7275 -0.164033 0.809174
lowerneck -0.661314 0.738386 -1.51693
upperneck 19.7248 -0.118383 3.68734
head 6.06406 -0.145163 1.39365
rclavicle -4.39811e-015 -7.95139e-016
rhumerus -27.4807 17.7268 -92.5209
rradius 45.8354
rwrist 14.8526
rhand -18.373 -37.8787
rfingers 7.12502
rthumb 7.91034 -67.7107
lclavicle -4.39811e-015 -7.95139e-016
lhumerus -30.2303 9.79845 84.3147
lradius 52.6406
lwrist -33.0151
lhand -11.8531 -29.1731
lfingers 7.12502
lthumb 14.1985 0.321595
rfemur -9.96934 3.02396 8.72759
rtibia 39.6558
rfoot -34.313 -9.22347
rtoes 31.1104
lfemur -11.986 -0.07236 -9.52249
ltibia 39.7594
lfoot -27.9659 22.9024
ltoes -35.3736
94
root 10.3699 15.9035 -0.673009 -138.357 -88.4301 136.013
lowerback -7.89195 -0.347544 -3.28068
upperback 3.09151 -0.0488294 -0.993635
thorax 7.69846 -0.165784 0.789443
lowerneck -0.610006 0.76721 -1.5037
upperneck 19.6911 -0.0794211 3.68975
head 6.04348 -0.125832 1.39388
rclavicle -2.67427e-015 1.23246e-014
rhumerus -27.5205 17.7663 -92.5476
rradius 45.8347
rwrist 14.8012
rhand -18.3565 -37.9124
rfingers 7.12502
rthumb 7.92629 -67.7438
lclavicle -2.67427e-015 1.23246e-014
lhumerus -30.25 9.83369 84.2926
lradius 52.624
lwrist -33.0254
lhand -11.9097 -29.2527
lfingers 7.12502
lthumb 14.144 0.245862
rfemur -9.95659 3.06563 8.81809
rtibia 39.6359
rfoot -34.3343 -9.26239
rtoes 31.1293
lfemur -11.9904 -0.0724572 -9.43835
ltibia 39.7826
lfoot -28.0061 22.872
ltoes -35.2578
95
root 10.3684 15.9039 -0.672971 -139.214 -88.4461 136.868
lowerback -7.88412 -0.347997 -3.24076
upperback 3.079 -0.0545823 -0.98911
thorax 7.68045 -0.166286 0.771118
lowerneck -0.579314 0.791044 -1.49021
upperneck 19.6761 -0.0476139 3.68985
head 6.03261 -0.109925 1.39311
rclavicle 4.07819e-015 -3.18055e-015
rhumerus -27.5555 17.7937 -92.5725
rradius 45.8344
rwrist 14.7358
rhand -18.3613 -37.9274
rfingers 7.12502
rthumb 7.92161 -67.759
lclavicle 4.07819e-015 -3.18055e-015
lhumerus -30.2546 9.86678 84.2741
lradius 52.5969
lwrist -33.0488
lhand -12.0069 -29.3148
lfingers 7.12502
lthumb 14.0503 0.190305
rfemur -9.9458 3.05631 8.84771
rtibia 39.6197
rfoot -34.3272 -9.25698
rtoes 31.1401
lfemur -11.989 -0.0848793 -9.4075
ltibia 39.8017
lfoot -28.0429 22.8586
ltoes -35.1337
96
root 10.3666 15.9038 -0.672766 -139.471 -88.4389 137.118
lowerback -7.88091 -0.344076 -3.22507
upperback 3.07103 -0.0511217 -0.992162
thorax 7.66979 -0.163495 0.759672
lowerneck -0.57862 0.811542 -1.4855
upperneck 19.6936 -0.0225195 3.69712
head 6.03731 -0.0972246 1.39603
rclavicle -2.86685e-015 -1.98785e-014
rhumerus -27.5846 17.8077 -92.5897
rradius 45.8349
rwrist 14.6552
rhand -18.3783 -37.9249
rfingers 7.12502
rthumb 7.90522 -67.7571
lclavicle -2.86685e-015 -1.98785e-014
lhumerus -30.2548 9.89157 84.2626
lradius 52.5674
lwrist -33.0797
lhand -12.1192 -29.3559
lfingers 7.12502
lthumb 13.9421 0.156629
rfemur -9.93418 3.03264 8.83967
rtibia 39.6089
rfoot -34.3067 -9.22154
rtoes 31.167
lfemur -11.9762 -0.0931796 -9.41173
ltibia 39.8166
lfoot -28.0592 22.8775
ltoes -35.0665
97
root 10.3646 15.9033 -0.672685 -139.911 -88.4227 137.543
lowerback -7.88142 -0.336692 -3.21587
upperback 3.06808 -0.0422452 -0.992387
thorax 7.66653 -0.158609 0.755573
lowerneck -0.599103 0.833863 -1.4976
upperneck 19.7365 0.00257991 3.71792
head 6.0536 -0.0847035 1.40632
rclavicle -5.89521e-015 -1.78906e-014
rhumerus -27.6098 17.8122 -92.5988
rradius 45.8367
rwrist 14.5825
rhand -18.3986 -37.8989
rfingers 7.12502
rthumb 7.8856 -67.7318
lclavicle -5.89521e-015 -1.78906e-014
lhumerus -30.2672 9.90954 84.2551
lradius 52.5529
lwrist -33.1127
lhand -12.2116 -29.3778
lfingers 7.12502
lthumb 13.8531 0.140855
rfemur -9.91926 3.02029 8.83035
rtibia 39.604
rfoot -34.2851 -9.18839
rtoes 31.2043
lfemur -11.9536 -0.0743502 -9.41805
ltibia 39.8275
lfoot -28.0404 22.9245
ltoes -35.145
98
root 10.3623 15.9029 -0.672795 -140.686 -88.4106 138.303
lowerback -7.88625 -0.330749 -3.20191
upperback 3.06678 -0.0359425 -0.986684
thorax 7.66762 -0.154951 0.754653
lowerneck -0.631901 0.860851 -1.52661
upperneck 19.798 0.0325812 3.74784
head 6.07766 -0.0704038 1.42279
rclavicle 8.79001e-016 1.35174e-014
rhumerus -27.6364 17.8157 -92.6056
rradius 45.8394
rwrist 14.5417
rhand -18.4119 -37.8594
rfingers 7.12502
rthumb 7.87282 -67.6929
lclavicle 8.79001e-016 1.35174e-014
lhumerus -30.3002 9.92717 84.245
lradius 52.559
lwrist -33.149
lhand -12.2574 -29.3891
lfingers 7.12502
lthumb 13.809 0.132526
rfemur -9.90267 3.02108 8.83626
rtibia 39.6037
rfoot -34.2681 -9.17772
rtoes 31.2132
lfemur -11.9292 -0.0327004 -9.41085
ltibia 39.835
lfoot -27.9966 22.9773
ltoes -35.3255
